<svg xmlns="http://www.w3.org/2000/svg" xmlns:xlink="http://www.w3.org/1999/xlink" fill="none" version="1.1" width="110" height="192" viewBox="0 0 110 192"><defs><clipPath id="master_svg0_1_587"><rect x="0" y="0" width="110" height="192" rx="0"/></clipPath></defs><g clip-path="url(#master_svg0_1_587)"><rect x="0" y="0" width="110" height="192" rx="0" fill="#FFFFFF" fill-opacity="0"/><g><path d="M6.204,14.098C6.006,16.122,5.676,17.926,5.192,19.51L3.718,18.366C4.07,17.068,4.4,15.594,4.73,14.098L6.204,14.098ZM8.756,25.054L8.756,27.562L21.34,27.562L21.34,25.054L16.764,25.054L16.764,20.808L20.504,20.808L20.504,18.366L16.764,18.366L16.764,14.56L20.856,14.56L20.856,12.074L16.764,12.074L16.764,7.40072L14.124,7.40072L14.124,12.074L12.188,12.074C12.452,11.0603,12.65,10.0239,12.826,8.96581L10.34,8.52513C9.988,10.9939,9.35,13.526,8.404,15.352C8.536,14.252,8.624,13.086,8.69,11.832L7.194,11.634L6.776,11.678L5.192,11.678C5.456,10.2449,5.676,8.83381,5.852,7.51106L3.344,7.33472C3.234,8.70181,3.036,10.2009,2.794,11.678L0.836,11.678L0.836,14.098L2.354,14.098C1.958,16.056,1.496,17.904,1.056,19.334C2.068,20.082,3.19,20.962,4.246,21.886C3.344,23.712,2.156,25.032,0.616,25.846C1.144,26.352,1.782,27.276,2.134,27.9178C3.806,26.858,5.126,25.472,6.116,23.624C6.754,24.262,7.282,24.856,7.678,25.384L9.13,23.162C8.668,22.568,7.986,21.886,7.194,21.16C7.656,19.796,8.008,18.234,8.272,16.474C8.888,16.804,9.68,17.31,10.076,17.618C10.582,16.76,11.044,15.726,11.44,14.56L14.124,14.56L14.124,18.366L10.142,18.366L10.142,20.808L14.124,20.808L14.124,25.054L8.756,25.054ZM92.84,14.934C93.676,15.594,94.688,16.43,95.546,17.2C93.28,18.3,90.794,19.114,88.264,19.62C88.748,20.192,89.364,21.314,89.628,22.04C90.728,21.776,91.806,21.468,92.884,21.116L92.884,27.9645L95.524,27.9645L95.524,27.012L103.818,27.012L103.818,27.9645L106.546,27.9645L106.546,18.058L99.396,18.058C102.432,16.122,104.962,13.592,106.502,10.402L104.676,9.34566L104.236,9.478L97.768,9.478C98.208,8.92594,98.626,8.37387,99.022,7.79981L96.052,7.18141C94.732,9.25731,92.29,11.48,88.682,13.064C89.276,13.504,90.112,14.516,90.508,15.154C92.444,14.164,94.072,13.064,95.458,11.854L102.498,11.854C101.354,13.372,99.814,14.714,98.01,15.858C97.042,15.022,95.854,14.12,94.886,13.438L92.84,14.934ZM103.818,24.614L95.524,24.614L95.524,20.456L103.818,20.456L103.818,24.614Z" fill="#215FFF" fill-opacity="1"/><path d="M6.204,14.098C6.006,16.122,5.676,17.926,5.192,19.51L3.718,18.366C4.07,17.068,4.4,15.594,4.73,14.098L6.204,14.098ZM8.756,25.054L8.756,27.562L21.34,27.562L21.34,25.054L16.764,25.054L16.764,20.808L20.504,20.808L20.504,18.366L16.764,18.366L16.764,14.56L20.856,14.56L20.856,12.074L16.764,12.074L16.764,7.40072L14.124,7.40072L14.124,12.074L12.188,12.074C12.452,11.0603,12.65,10.0239,12.826,8.96581L10.34,8.52513C9.988,10.9939,9.35,13.526,8.404,15.352C8.536,14.252,8.624,13.086,8.69,11.832L7.194,11.634L6.776,11.678L5.192,11.678C5.456,10.2449,5.676,8.83381,5.852,7.51106L3.344,7.33472C3.234,8.70181,3.036,10.2009,2.794,11.678L0.836,11.678L0.836,14.098L2.354,14.098C1.958,16.056,1.496,17.904,1.056,19.334C2.068,20.082,3.19,20.962,4.246,21.886C3.344,23.712,2.156,25.032,0.616,25.846C1.144,26.352,1.782,27.276,2.134,27.9178C3.806,26.858,5.126,25.472,6.116,23.624C6.754,24.262,7.282,24.856,7.678,25.384L9.13,23.162C8.668,22.568,7.986,21.886,7.194,21.16C7.656,19.796,8.008,18.234,8.272,16.474C8.888,16.804,9.68,17.31,10.076,17.618C10.582,16.76,11.044,15.726,11.44,14.56L14.124,14.56L14.124,18.366L10.142,18.366L10.142,20.808L14.124,20.808L14.124,25.054L8.756,25.054ZM92.84,14.934C93.676,15.594,94.688,16.43,95.546,17.2C93.28,18.3,90.794,19.114,88.264,19.62C88.748,20.192,89.364,21.314,89.628,22.04C90.728,21.776,91.806,21.468,92.884,21.116L92.884,27.9645L95.524,27.9645L95.524,27.012L103.818,27.012L103.818,27.9645L106.546,27.9645L106.546,18.058L99.396,18.058C102.432,16.122,104.962,13.592,106.502,10.402L104.676,9.34566L104.236,9.478L97.768,9.478C98.208,8.92594,98.626,8.37387,99.022,7.79981L96.052,7.18141C94.732,9.25731,92.29,11.48,88.682,13.064C89.276,13.504,90.112,14.516,90.508,15.154C92.444,14.164,94.072,13.064,95.458,11.854L102.498,11.854C101.354,13.372,99.814,14.714,98.01,15.858C97.042,15.022,95.854,14.12,94.886,13.438L92.84,14.934ZM103.818,24.614L95.524,24.614L95.524,20.456L103.818,20.456L103.818,24.614Z" fill="#000000" fill-opacity="0.05999999865889549"/></g><g><path d="M7.436,56.768L7.436,59.275999999999996L21.208,59.275999999999996L21.208,56.768L16.016,56.768L16.016,52.346000000000004L20.042,52.346000000000004L20.042,49.882000000000005L16.016,49.882000000000005L16.016,46.252L20.526,46.252L20.526,43.766L16.016,43.766L16.016,39.42272L13.376,39.42272L13.376,43.766L11.594,43.766C11.814,42.7739,11.99,41.73787,12.144,40.70147L9.57,40.30478C9.35,42.200900000000004,8.976,44.096000000000004,8.426,45.724000000000004C8.096,44.844,7.634,43.788,7.194,42.9503L5.918,43.4797L5.918,39.29072L3.278,39.29072L3.278,43.81L1.43,43.5457C1.276,45.372,0.88,47.836,0.352,49.31L2.31,50.013999999999996C2.772,48.43,3.168,46.054,3.278,44.206L3.278,59.958L5.918,59.958L5.918,44.866C6.292,45.79,6.622,46.736000000000004,6.754,47.396L7.986,46.824C7.788,47.286,7.568,47.726,7.326,48.1C7.964,48.364000000000004,9.152,48.958,9.68,49.31C10.142,48.474000000000004,10.56,47.418,10.934,46.252L13.376,46.252L13.376,49.882000000000005L9.086,49.882000000000005L9.086,52.346000000000004L13.376,52.346000000000004L13.376,56.768L7.436,56.768ZM100.826,41.984L100.826,54.436L103.4,54.436L103.4,41.984L100.826,41.984ZM105.446,39.75891L105.446,56.812C105.446,57.186,105.292,57.318,104.896,57.318C104.5,57.318,103.246,57.318,101.992,57.274C102.366,58.022,102.74,59.232,102.85,59.980000000000004C104.742,60.002700000000004,106.062,59.914,106.92,59.474000000000004C107.778,59.034,108.064,58.286,108.064,56.834L108.064,39.75891L105.446,39.75891ZM91.806,42.578L96.052,42.578L96.052,45.614000000000004L91.806,45.614000000000004L91.806,42.578ZM89.408,40.268L89.408,47.946L98.604,47.946L98.604,40.268L89.408,40.268ZM92.158,48.408L92.092,49.772L88.814,49.772L88.814,52.17L91.894,52.17C91.52,54.766,90.64,56.768,88.11,58.088C88.66,58.55,89.364,59.452,89.672,60.0697C92.818,58.33,93.918,55.623999999999995,94.358,52.17L96.514,52.17C96.36,55.403999999999996,96.184,56.702,95.898,57.054C95.7,57.274,95.524,57.318,95.216,57.318C94.864,57.318,94.182,57.318,93.412,57.230000000000004C93.808,57.912,94.072,58.968,94.116,59.738C95.106,59.7603,96.03,59.738,96.58,59.65C97.218,59.54,97.68,59.342,98.12,58.769999999999996C98.714,58.022,98.912,55.932,99.11,50.784C99.132,50.454,99.154,49.772,99.154,49.772L94.578,49.772L94.644,48.408L92.158,48.408Z" fill="#215FFF" fill-opacity="1"/><path d="M7.436,56.768L7.436,59.275999999999996L21.208,59.275999999999996L21.208,56.768L16.016,56.768L16.016,52.346000000000004L20.042,52.346000000000004L20.042,49.882000000000005L16.016,49.882000000000005L16.016,46.252L20.526,46.252L20.526,43.766L16.016,43.766L16.016,39.42272L13.376,39.42272L13.376,43.766L11.594,43.766C11.814,42.7739,11.99,41.73787,12.144,40.70147L9.57,40.30478C9.35,42.200900000000004,8.976,44.096000000000004,8.426,45.724000000000004C8.096,44.844,7.634,43.788,7.194,42.9503L5.918,43.4797L5.918,39.29072L3.278,39.29072L3.278,43.81L1.43,43.5457C1.276,45.372,0.88,47.836,0.352,49.31L2.31,50.013999999999996C2.772,48.43,3.168,46.054,3.278,44.206L3.278,59.958L5.918,59.958L5.918,44.866C6.292,45.79,6.622,46.736000000000004,6.754,47.396L7.986,46.824C7.788,47.286,7.568,47.726,7.326,48.1C7.964,48.364000000000004,9.152,48.958,9.68,49.31C10.142,48.474000000000004,10.56,47.418,10.934,46.252L13.376,46.252L13.376,49.882000000000005L9.086,49.882000000000005L9.086,52.346000000000004L13.376,52.346000000000004L13.376,56.768L7.436,56.768ZM100.826,41.984L100.826,54.436L103.4,54.436L103.4,41.984L100.826,41.984ZM105.446,39.75891L105.446,56.812C105.446,57.186,105.292,57.318,104.896,57.318C104.5,57.318,103.246,57.318,101.992,57.274C102.366,58.022,102.74,59.232,102.85,59.980000000000004C104.742,60.002700000000004,106.062,59.914,106.92,59.474000000000004C107.778,59.034,108.064,58.286,108.064,56.834L108.064,39.75891L105.446,39.75891ZM91.806,42.578L96.052,42.578L96.052,45.614000000000004L91.806,45.614000000000004L91.806,42.578ZM89.408,40.268L89.408,47.946L98.604,47.946L98.604,40.268L89.408,40.268ZM92.158,48.408L92.092,49.772L88.814,49.772L88.814,52.17L91.894,52.17C91.52,54.766,90.64,56.768,88.11,58.088C88.66,58.55,89.364,59.452,89.672,60.0697C92.818,58.33,93.918,55.623999999999995,94.358,52.17L96.514,52.17C96.36,55.403999999999996,96.184,56.702,95.898,57.054C95.7,57.274,95.524,57.318,95.216,57.318C94.864,57.318,94.182,57.318,93.412,57.230000000000004C93.808,57.912,94.072,58.968,94.116,59.738C95.106,59.7603,96.03,59.738,96.58,59.65C97.218,59.54,97.68,59.342,98.12,58.769999999999996C98.714,58.022,98.912,55.932,99.11,50.784C99.132,50.454,99.154,49.772,99.154,49.772L94.578,49.772L94.644,48.408L92.158,48.408Z" fill="#000000" fill-opacity="0.05999999865889549"/></g><g><path d="M0.88,84.72L0.88,87.25L10.846,87.25L10.846,91.99L13.574,91.99L13.574,87.25L21.12,87.25L21.12,84.72L13.574,84.72L13.574,81.398L19.404,81.398L19.404,78.934L13.574,78.934L13.574,76.272L19.932,76.272L19.932,73.72L7.436,73.72C7.7,73.12394,7.942,72.52788,8.162,71.90981L5.456,71.20306C4.51,74.094,2.794,76.91,0.814,78.604C1.474,79,2.596,79.858,3.102,80.32C4.158,79.264,5.192,77.856,6.116,76.272L10.846,76.272L10.846,78.934L4.378,78.934L4.378,84.72L0.88,84.72ZM7.018,84.72L7.018,81.398L10.846,81.398L10.846,84.72L7.018,84.72ZM101.288,78.67C101.948,79.528,102.74,80.694,103.092,81.44200000000001L105.182,80.32C104.786,79.616,103.994,78.538,103.29,77.724L101.288,78.67ZM93.544,86.46379999999999C93.984,87.1692,94.402,87.8749,94.644,88.426L95.964,87.2136L95.964,88.779L90.992,89.021L90.992,87.5662C91.41,87.91890000000001,92.004,88.4923,92.202,88.82300000000001C92.752,88.16159999999999,93.192,87.36789999999999,93.544,86.46379999999999ZM88.902,80.628L88.902,91.199L95.964,90.737L95.964,91.815L98.01,91.815L98.01,80.518L95.964,80.518L95.964,86.8165C95.568,86.0448,94.886,85.0527,94.204,84.1927C94.468,82.982,94.622,81.662,94.732,80.276L92.752,80.1C92.598,82.938,92.202,85.4714,90.992,87.1472L90.992,80.628L88.902,80.628ZM102.542,71.18106C101.662,73.52097,100.034,76.05199999999999,98.098,77.812L95.084,77.812L95.084,75.92L98.208,75.92L98.208,73.852L95.084,73.852L95.084,71.46809L92.774,71.46809L92.774,77.812L91.63,77.812L91.63,72.63786999999999L89.496,72.63786999999999L89.496,77.812L88.396,77.812L88.396,79.814L98.384,79.814L98.384,79.286C98.736,79.638,99.066,80.012,99.264,80.276C100.936,78.868,102.366,77.02,103.51,74.952C104.654,77.02,106.106,79.044,107.514,80.32C107.954,79.66,108.834,78.714,109.45,78.23C107.69,76.932,105.776,74.666,104.676,72.52753L104.918,71.88747000000001L102.542,71.18106ZM99,81.574L99,83.906L105.028,83.906C104.368,84.9864,103.532,86.15520000000001,102.784,87.0812L100.342,85.2291L98.934,86.99289999999999C100.892,88.5803,103.73,90.803,105.028,92.167L106.502,90.099C106.062,89.681,105.446,89.15299999999999,104.742,88.6027C106.106,86.8829,107.668,84.6117,108.658,82.608L106.81,81.44200000000001L106.392,81.574L99,81.574Z" fill="#215FFF" fill-opacity="1"/><path d="M0.88,84.72L0.88,87.25L10.846,87.25L10.846,91.99L13.574,91.99L13.574,87.25L21.12,87.25L21.12,84.72L13.574,84.72L13.574,81.398L19.404,81.398L19.404,78.934L13.574,78.934L13.574,76.272L19.932,76.272L19.932,73.72L7.436,73.72C7.7,73.12394,7.942,72.52788,8.162,71.90981L5.456,71.20306C4.51,74.094,2.794,76.91,0.814,78.604C1.474,79,2.596,79.858,3.102,80.32C4.158,79.264,5.192,77.856,6.116,76.272L10.846,76.272L10.846,78.934L4.378,78.934L4.378,84.72L0.88,84.72ZM7.018,84.72L7.018,81.398L10.846,81.398L10.846,84.72L7.018,84.72ZM101.288,78.67C101.948,79.528,102.74,80.694,103.092,81.44200000000001L105.182,80.32C104.786,79.616,103.994,78.538,103.29,77.724L101.288,78.67ZM93.544,86.46379999999999C93.984,87.1692,94.402,87.8749,94.644,88.426L95.964,87.2136L95.964,88.779L90.992,89.021L90.992,87.5662C91.41,87.91890000000001,92.004,88.4923,92.202,88.82300000000001C92.752,88.16159999999999,93.192,87.36789999999999,93.544,86.46379999999999ZM88.902,80.628L88.902,91.199L95.964,90.737L95.964,91.815L98.01,91.815L98.01,80.518L95.964,80.518L95.964,86.8165C95.568,86.0448,94.886,85.0527,94.204,84.1927C94.468,82.982,94.622,81.662,94.732,80.276L92.752,80.1C92.598,82.938,92.202,85.4714,90.992,87.1472L90.992,80.628L88.902,80.628ZM102.542,71.18106C101.662,73.52097,100.034,76.05199999999999,98.098,77.812L95.084,77.812L95.084,75.92L98.208,75.92L98.208,73.852L95.084,73.852L95.084,71.46809L92.774,71.46809L92.774,77.812L91.63,77.812L91.63,72.63786999999999L89.496,72.63786999999999L89.496,77.812L88.396,77.812L88.396,79.814L98.384,79.814L98.384,79.286C98.736,79.638,99.066,80.012,99.264,80.276C100.936,78.868,102.366,77.02,103.51,74.952C104.654,77.02,106.106,79.044,107.514,80.32C107.954,79.66,108.834,78.714,109.45,78.23C107.69,76.932,105.776,74.666,104.676,72.52753L104.918,71.88747000000001L102.542,71.18106ZM99,81.574L99,83.906L105.028,83.906C104.368,84.9864,103.532,86.15520000000001,102.784,87.0812L100.342,85.2291L98.934,86.99289999999999C100.892,88.5803,103.73,90.803,105.028,92.167L106.502,90.099C106.062,89.681,105.446,89.15299999999999,104.742,88.6027C106.106,86.8829,107.668,84.6117,108.658,82.608L106.81,81.44200000000001L106.392,81.574L99,81.574Z" fill="#000000" fill-opacity="0.05999999865889549"/></g><g><path d="M1.87,114.366L1.87,122.77L17.072,122.77L17.072,123.9652L20.02,123.9652L20.02,114.366L17.072,114.366L17.072,120.13L12.386,120.13L12.386,113.2L19.14,113.2L19.14,105.16278L16.192,105.16278L16.192,110.648L12.386,110.648L12.386,103.31203L9.46,103.31203L9.46,110.648L5.808,110.648L5.808,105.18478L3.014,105.18478L3.014,113.2L9.46,113.2L9.46,120.13L4.84,120.13L4.84,114.366L1.87,114.366ZM33.77,103.57741C33,106.6206,31.57,109.636,29.854,111.506C30.514,111.858,31.702,112.65,32.23,113.09C32.956,112.21000000000001,33.638,111.11,34.276,109.878L38.852,109.878L38.852,113.77199999999999L32.846,113.77199999999999L32.846,116.324L38.852,116.324L38.852,120.768L30.316,120.768L30.316,123.342L50.204,123.342L50.204,120.768L41.624,120.768L41.624,116.324L48.224,116.324L48.224,113.77199999999999L41.624,113.77199999999999L41.624,109.878L49.082,109.878L49.082,107.304L41.624,107.304L41.624,103.29072L38.852,103.29072L38.852,107.304L35.442,107.304C35.86,106.2899,36.212,105.25319,36.498,104.19478L33.77,103.57741ZM64.482,114.63L74.294,114.63L74.294,119.602L64.482,119.602L64.482,114.63ZM64.482,112.03399999999999L64.482,107.304L74.294,107.304L74.294,112.03399999999999L64.482,112.03399999999999ZM61.776,104.642L61.776,123.7229L64.482,123.7229L64.482,122.264L74.294,122.264L74.294,123.6785L77.132,123.6785L77.132,104.642L61.776,104.642ZM90.97,118.876C90.354,120.196,89.232,121.582,88.066,122.462C88.66,122.814,89.694,123.562,90.178,124.0254C91.366,122.946,92.664,121.23,93.478,119.602L90.97,118.876ZM105.666,106.688L105.666,109.262L102.498,109.262L102.498,106.688L105.666,106.688ZM94.248,119.866C95.106,120.9,96.184,122.33,96.624,123.21000000000001L98.428,122.176L98.23,122.52799999999999C98.802,122.77,99.902,123.562,100.32,124.0254C101.508,122.044,102.058,119.294,102.322,116.654L105.666,116.654L105.666,121.032C105.666,121.362,105.534,121.47200000000001,105.226,121.47200000000001C104.896,121.47200000000001,103.818,121.494,102.894,121.428C103.224,122.088,103.554,123.254,103.642,123.936C105.292,123.95830000000001,106.414,123.892,107.184,123.474C107.954,123.056,108.196,122.352,108.196,121.054L108.196,104.28999999999999L100.012,104.28999999999999L100.012,112.386C100.012,115.268,99.902,118.986,98.626,121.758C98.054,120.878,97.064,119.668,96.25,118.76599999999999L94.248,119.866ZM105.666,111.594L105.666,114.3L102.454,114.3L102.498,112.386L102.498,111.594L105.666,111.594ZM95.348,103.55919L95.348,105.896L92.598,105.896L92.598,103.55644L90.222,103.55644L90.222,105.896L88.506,105.896L88.506,108.206L90.222,108.206L90.222,116.412L88.242,116.412L88.242,118.72200000000001L99.132,118.72200000000001L99.132,116.412L97.768,116.412L97.768,108.206L99.286,108.206L99.286,105.896L97.768,105.896L97.768,103.55644L95.348,103.55919ZM92.598,108.206L95.348,108.206L95.348,109.504L92.598,109.504L92.598,108.206ZM92.598,111.506L95.348,111.506L95.348,112.914L92.598,112.914L92.598,111.506ZM92.598,114.938L95.348,114.938L95.348,116.412L92.598,116.412L92.598,114.938Z" fill="#215FFF" fill-opacity="1"/><path d="M1.87,114.366L1.87,122.77L17.072,122.77L17.072,123.9652L20.02,123.9652L20.02,114.366L17.072,114.366L17.072,120.13L12.386,120.13L12.386,113.2L19.14,113.2L19.14,105.16278L16.192,105.16278L16.192,110.648L12.386,110.648L12.386,103.31203L9.46,103.31203L9.46,110.648L5.808,110.648L5.808,105.18478L3.014,105.18478L3.014,113.2L9.46,113.2L9.46,120.13L4.84,120.13L4.84,114.366L1.87,114.366ZM33.77,103.57741C33,106.6206,31.57,109.636,29.854,111.506C30.514,111.858,31.702,112.65,32.23,113.09C32.956,112.21000000000001,33.638,111.11,34.276,109.878L38.852,109.878L38.852,113.77199999999999L32.846,113.77199999999999L32.846,116.324L38.852,116.324L38.852,120.768L30.316,120.768L30.316,123.342L50.204,123.342L50.204,120.768L41.624,120.768L41.624,116.324L48.224,116.324L48.224,113.77199999999999L41.624,113.77199999999999L41.624,109.878L49.082,109.878L49.082,107.304L41.624,107.304L41.624,103.29072L38.852,103.29072L38.852,107.304L35.442,107.304C35.86,106.2899,36.212,105.25319,36.498,104.19478L33.77,103.57741ZM64.482,114.63L74.294,114.63L74.294,119.602L64.482,119.602L64.482,114.63ZM64.482,112.03399999999999L64.482,107.304L74.294,107.304L74.294,112.03399999999999L64.482,112.03399999999999ZM61.776,104.642L61.776,123.7229L64.482,123.7229L64.482,122.264L74.294,122.264L74.294,123.6785L77.132,123.6785L77.132,104.642L61.776,104.642ZM90.97,118.876C90.354,120.196,89.232,121.582,88.066,122.462C88.66,122.814,89.694,123.562,90.178,124.0254C91.366,122.946,92.664,121.23,93.478,119.602L90.97,118.876ZM105.666,106.688L105.666,109.262L102.498,109.262L102.498,106.688L105.666,106.688ZM94.248,119.866C95.106,120.9,96.184,122.33,96.624,123.21000000000001L98.428,122.176L98.23,122.52799999999999C98.802,122.77,99.902,123.562,100.32,124.0254C101.508,122.044,102.058,119.294,102.322,116.654L105.666,116.654L105.666,121.032C105.666,121.362,105.534,121.47200000000001,105.226,121.47200000000001C104.896,121.47200000000001,103.818,121.494,102.894,121.428C103.224,122.088,103.554,123.254,103.642,123.936C105.292,123.95830000000001,106.414,123.892,107.184,123.474C107.954,123.056,108.196,122.352,108.196,121.054L108.196,104.28999999999999L100.012,104.28999999999999L100.012,112.386C100.012,115.268,99.902,118.986,98.626,121.758C98.054,120.878,97.064,119.668,96.25,118.76599999999999L94.248,119.866ZM105.666,111.594L105.666,114.3L102.454,114.3L102.498,112.386L102.498,111.594L105.666,111.594ZM95.348,103.55919L95.348,105.896L92.598,105.896L92.598,103.55644L90.222,103.55644L90.222,105.896L88.506,105.896L88.506,108.206L90.222,108.206L90.222,116.412L88.242,116.412L88.242,118.72200000000001L99.132,118.72200000000001L99.132,116.412L97.768,116.412L97.768,108.206L99.286,108.206L99.286,105.896L97.768,105.896L97.768,103.55644L95.348,103.55919ZM92.598,108.206L95.348,108.206L95.348,109.504L92.598,109.504L92.598,108.206ZM92.598,111.506L95.348,111.506L95.348,112.914L92.598,112.914L92.598,111.506ZM92.598,114.938L95.348,114.938L95.348,116.412L92.598,116.412L92.598,114.938Z" fill="#000000" fill-opacity="0.05999999865889549"/></g><g><path d="M14.762,142.802L14.762,144.122L6.974,144.122L6.974,142.802L14.762,142.802ZM14.762,140.91L6.974,140.91L6.974,139.656L14.762,139.656L14.762,140.91ZM14.762,146.014L14.762,147.026L14.3,147.422L6.974,147.422L6.974,146.014L14.762,146.014ZM1.54,147.422L1.54,149.71L11.176,149.71C8.184,151.57999999999998,4.708,153.01,0.946,153.978C1.43,154.484,2.222,155.54,2.552,156.1158C7.062,154.748,11.242,152.79,14.762,150.084L14.762,152.768C14.762,153.164,14.608,153.296,14.168,153.318C13.728,153.318,12.188,153.318,10.802,153.252C11.154,153.956,11.572,155.144,11.66,155.87C13.772,155.87,15.158,155.826,16.104,155.40800000000002C17.028,154.968,17.336,154.242,17.336,152.79L17.336,147.862C18.722,146.498,19.976,145.002,21.032,143.33L18.744,142.274C18.304,142.978,17.842,143.638,17.336,144.276L17.336,137.39L11.77,137.39C12.1,136.81594,12.43,136.19753,12.738,135.57912L9.636,135.24775C9.482,135.88816,9.24,136.66125,8.954,137.39L4.356,137.39L4.356,147.422L1.54,147.422ZM27.214,135.37803C26.136,138.5278,24.288,141.6776,22.352,143.66C22.814,144.32,23.54,145.75,23.782,146.4103C24.222,145.948,24.64,145.42000000000002,25.058,144.87L25.058,155.9683L27.676,155.9683L27.676,140.7086C28.468,139.2328,29.15,137.66878,29.7,136.14906L27.214,135.37803ZM39.116,135.73038L36.718,136.17106C37.4,139.4308,38.302,141.7659,39.798,143.682L31.812,143.682C33.286,141.6556,34.408,139.16649999999998,35.134,136.45741L32.538,135.90672C31.768,139.1225,30.228,141.9419,28.028,143.66C28.512,144.21,29.326,145.4647,29.59,146.0814C30.052,145.707,30.47,145.26670000000001,30.888,144.826L30.888,146.124L32.89,146.124C32.538,149.974,31.306,152.614,28.314,154.088C28.864,154.528,29.766,155.54,30.074,156.0494C33.44,154.11,34.958,150.964,35.508,146.124L38.412,146.124C38.214,150.81,37.994,152.68,37.598,153.164C37.378,153.428,37.18,153.472,36.85,153.472C36.432,153.472,35.64,153.472,34.76,153.38400000000001C35.156,154.044,35.442,155.078,35.486,155.804C36.542,155.8487,37.532,155.8487,38.148,155.738C38.852,155.628,39.38,155.40800000000002,39.864,154.77C40.546,153.934,40.81,151.448,41.052,145.046C41.338,145.31,41.624,145.574,41.954,145.838C42.306,145.024,43.054,144.144,43.714,143.594C41.25,141.7879,39.996,139.6292,39.116,135.73038ZM45.782,137.258C46.992,138.336,48.554,139.832,49.28,140.8L51.084,138.996C50.314,138.05,48.686,136.642,47.498,135.6465L45.782,137.258ZM51.832,152.68L51.832,155.144L65.34,155.144L65.34,152.68L60.874,152.68L60.874,146.564L64.504,146.564L64.504,144.1L60.874,144.1L60.874,139.15L64.9,139.15L64.9,136.686L52.404,136.686L52.404,139.15L58.168,139.15L58.168,152.68L56.056,152.68L56.056,142.67L53.438,142.67L53.438,152.68L51.832,152.68ZM44.88,142.098L44.88,144.628L47.476,144.628L47.476,150.964C47.476,152.328,46.64,153.38400000000001,46.09,153.89C46.53,154.22,47.388,155.078,47.696,155.5874C48.07,155.034,48.818,154.39600000000002,52.844,150.92000000000002C52.514,150.414,52.03,149.336,51.788,148.588L50.028,150.106L50.028,142.098L44.88,142.098ZM72.424,138.38L81.4,138.38L81.4,140.426L72.424,140.426L72.424,138.38ZM69.784,136.07L69.784,142.714L84.216,142.714L84.216,136.07L69.784,136.07ZM67.166,144.1L67.166,146.476L71.302,146.476C70.862,147.928,70.334,149.446,69.872,150.524L81.158,150.524C80.872,152.108,80.542,152.988,80.124,153.296C79.838,153.472,79.552,153.494,79.068,153.494C78.386,153.494,76.758,153.472,75.284,153.34C75.768,154.044,76.164,155.1,76.208,155.848C77.726,155.9374,79.178,155.915,80.014,155.8703C81.048,155.804,81.774,155.65,82.434,155.034C83.226,154.286,83.754,152.636,84.194,149.226C84.26,148.874,84.326,148.126,84.326,148.126L73.744,148.126L74.272,146.476L86.746,146.476L86.746,144.1L67.166,144.1ZM97.218,149.204L97.218,151.536L105.072,151.536L105.072,149.204L97.218,149.204ZM98.714,139.656C98.56,142.054,98.23,145.156,97.922,147.07L98.626,147.07L106.216,147.09199999999998C105.886,151.118,105.468,152.856,104.984,153.318C104.764,153.56,104.544,153.60399999999998,104.192,153.60399999999998C103.774,153.60399999999998,102.916,153.60399999999998,102.014,153.516C102.388,154.154,102.674,155.166,102.718,155.87C103.774,155.9147,104.742,155.8923,105.358,155.826C106.084,155.738,106.59,155.518,107.118,154.924C107.888,154.088,108.372,151.712,108.812,145.882C108.856,145.574,108.9,144.848,108.9,144.848L106.458,144.848C106.788,142.098,107.118,138.974,107.272,136.51L105.424,136.33366L105.006,136.444L97.658,136.444L97.658,138.82L104.566,138.82C104.412,140.624,104.192,142.846,103.95,144.848L100.672,144.848C100.87,143.242,101.046,141.394,101.178,139.81L98.714,139.656ZM88.946,136.29L88.946,138.666L91.3,138.666C90.75,141.592,89.848,144.298,88.462,146.124C88.814,146.894,89.298,148.566,89.386,149.248C89.694,148.874,90.002,148.456,90.288,148.016L90.288,154.924L92.51,154.924L92.51,153.274L96.404,153.274L96.404,143.132L92.576,143.132C93.06,141.702,93.456,140.184,93.764,138.666L96.888,138.666L96.888,136.29L88.946,136.29ZM92.51,145.442L94.138,145.442L94.138,150.986L92.51,150.986L92.51,145.442Z" fill="#215FFF" fill-opacity="1"/><path d="M14.762,142.802L14.762,144.122L6.974,144.122L6.974,142.802L14.762,142.802ZM14.762,140.91L6.974,140.91L6.974,139.656L14.762,139.656L14.762,140.91ZM14.762,146.014L14.762,147.026L14.3,147.422L6.974,147.422L6.974,146.014L14.762,146.014ZM1.54,147.422L1.54,149.71L11.176,149.71C8.184,151.57999999999998,4.708,153.01,0.946,153.978C1.43,154.484,2.222,155.54,2.552,156.1158C7.062,154.748,11.242,152.79,14.762,150.084L14.762,152.768C14.762,153.164,14.608,153.296,14.168,153.318C13.728,153.318,12.188,153.318,10.802,153.252C11.154,153.956,11.572,155.144,11.66,155.87C13.772,155.87,15.158,155.826,16.104,155.40800000000002C17.028,154.968,17.336,154.242,17.336,152.79L17.336,147.862C18.722,146.498,19.976,145.002,21.032,143.33L18.744,142.274C18.304,142.978,17.842,143.638,17.336,144.276L17.336,137.39L11.77,137.39C12.1,136.81594,12.43,136.19753,12.738,135.57912L9.636,135.24775C9.482,135.88816,9.24,136.66125,8.954,137.39L4.356,137.39L4.356,147.422L1.54,147.422ZM27.214,135.37803C26.136,138.5278,24.288,141.6776,22.352,143.66C22.814,144.32,23.54,145.75,23.782,146.4103C24.222,145.948,24.64,145.42000000000002,25.058,144.87L25.058,155.9683L27.676,155.9683L27.676,140.7086C28.468,139.2328,29.15,137.66878,29.7,136.14906L27.214,135.37803ZM39.116,135.73038L36.718,136.17106C37.4,139.4308,38.302,141.7659,39.798,143.682L31.812,143.682C33.286,141.6556,34.408,139.16649999999998,35.134,136.45741L32.538,135.90672C31.768,139.1225,30.228,141.9419,28.028,143.66C28.512,144.21,29.326,145.4647,29.59,146.0814C30.052,145.707,30.47,145.26670000000001,30.888,144.826L30.888,146.124L32.89,146.124C32.538,149.974,31.306,152.614,28.314,154.088C28.864,154.528,29.766,155.54,30.074,156.0494C33.44,154.11,34.958,150.964,35.508,146.124L38.412,146.124C38.214,150.81,37.994,152.68,37.598,153.164C37.378,153.428,37.18,153.472,36.85,153.472C36.432,153.472,35.64,153.472,34.76,153.38400000000001C35.156,154.044,35.442,155.078,35.486,155.804C36.542,155.8487,37.532,155.8487,38.148,155.738C38.852,155.628,39.38,155.40800000000002,39.864,154.77C40.546,153.934,40.81,151.448,41.052,145.046C41.338,145.31,41.624,145.574,41.954,145.838C42.306,145.024,43.054,144.144,43.714,143.594C41.25,141.7879,39.996,139.6292,39.116,135.73038ZM45.782,137.258C46.992,138.336,48.554,139.832,49.28,140.8L51.084,138.996C50.314,138.05,48.686,136.642,47.498,135.6465L45.782,137.258ZM51.832,152.68L51.832,155.144L65.34,155.144L65.34,152.68L60.874,152.68L60.874,146.564L64.504,146.564L64.504,144.1L60.874,144.1L60.874,139.15L64.9,139.15L64.9,136.686L52.404,136.686L52.404,139.15L58.168,139.15L58.168,152.68L56.056,152.68L56.056,142.67L53.438,142.67L53.438,152.68L51.832,152.68ZM44.88,142.098L44.88,144.628L47.476,144.628L47.476,150.964C47.476,152.328,46.64,153.38400000000001,46.09,153.89C46.53,154.22,47.388,155.078,47.696,155.5874C48.07,155.034,48.818,154.39600000000002,52.844,150.92000000000002C52.514,150.414,52.03,149.336,51.788,148.588L50.028,150.106L50.028,142.098L44.88,142.098ZM72.424,138.38L81.4,138.38L81.4,140.426L72.424,140.426L72.424,138.38ZM69.784,136.07L69.784,142.714L84.216,142.714L84.216,136.07L69.784,136.07ZM67.166,144.1L67.166,146.476L71.302,146.476C70.862,147.928,70.334,149.446,69.872,150.524L81.158,150.524C80.872,152.108,80.542,152.988,80.124,153.296C79.838,153.472,79.552,153.494,79.068,153.494C78.386,153.494,76.758,153.472,75.284,153.34C75.768,154.044,76.164,155.1,76.208,155.848C77.726,155.9374,79.178,155.915,80.014,155.8703C81.048,155.804,81.774,155.65,82.434,155.034C83.226,154.286,83.754,152.636,84.194,149.226C84.26,148.874,84.326,148.126,84.326,148.126L73.744,148.126L74.272,146.476L86.746,146.476L86.746,144.1L67.166,144.1ZM97.218,149.204L97.218,151.536L105.072,151.536L105.072,149.204L97.218,149.204ZM98.714,139.656C98.56,142.054,98.23,145.156,97.922,147.07L98.626,147.07L106.216,147.09199999999998C105.886,151.118,105.468,152.856,104.984,153.318C104.764,153.56,104.544,153.60399999999998,104.192,153.60399999999998C103.774,153.60399999999998,102.916,153.60399999999998,102.014,153.516C102.388,154.154,102.674,155.166,102.718,155.87C103.774,155.9147,104.742,155.8923,105.358,155.826C106.084,155.738,106.59,155.518,107.118,154.924C107.888,154.088,108.372,151.712,108.812,145.882C108.856,145.574,108.9,144.848,108.9,144.848L106.458,144.848C106.788,142.098,107.118,138.974,107.272,136.51L105.424,136.33366L105.006,136.444L97.658,136.444L97.658,138.82L104.566,138.82C104.412,140.624,104.192,142.846,103.95,144.848L100.672,144.848C100.87,143.242,101.046,141.394,101.178,139.81L98.714,139.656ZM88.946,136.29L88.946,138.666L91.3,138.666C90.75,141.592,89.848,144.298,88.462,146.124C88.814,146.894,89.298,148.566,89.386,149.248C89.694,148.874,90.002,148.456,90.288,148.016L90.288,154.924L92.51,154.924L92.51,153.274L96.404,153.274L96.404,143.132L92.576,143.132C93.06,141.702,93.456,140.184,93.764,138.666L96.888,138.666L96.888,136.29L88.946,136.29ZM92.51,145.442L94.138,145.442L94.138,150.986L92.51,150.986L92.51,145.442Z" fill="#000000" fill-opacity="0.05999999865889549"/></g><g><path d="M5.94,173.086L16.368,173.086L16.368,176.54L5.94,176.54L5.94,175.61599999999999L5.94,173.086ZM9.218,167.84244C9.592,168.68084,10.032,169.80594,10.296,170.622L3.168,170.622L3.168,175.61599999999999C3.168,178.828,2.948,183.4092,0.572,186.5366C1.21,186.8229,2.398,187.66,2.904,188.1447C4.774,185.6999,5.522,182.1538,5.808,179.004L16.368,179.004L16.368,180.1494L19.074,180.1494L19.074,170.622L11.792,170.622L13.112,170.247C12.848,169.38691,12.342,168.12947,11.858,167.18072L9.218,167.84244ZM31.526,169.456L31.526,187.5469L34.276,187.5469L34.276,185.736L46.024,185.736L46.024,187.5029L48.906,187.5029L48.906,169.456L31.526,169.456ZM34.276,183.03L34.276,172.14L46.024,172.14L46.024,183.03L34.276,183.03ZM67.65,169.42849999999999L67.65,175.242L65.472,176.166L66.44,178.498L67.65,177.97L67.65,183.69C67.65,186.726,68.486,187.54,71.5,187.54C72.182,187.54,75.482,187.54,76.208,187.54C78.782,187.54,79.552,186.506,79.904,183.382C79.178,183.228,78.166,182.81,77.594,182.436C77.396,184.68,77.176,185.186,75.988,185.186C75.284,185.186,72.358,185.186,71.698,185.186C70.356,185.186,70.158,184.988,70.158,183.69L70.158,176.892L71.984,176.1L71.984,182.832L74.448,182.832L74.448,175.022L76.362,174.208C76.362,177.332,76.318,178.96,76.274,179.29C76.208,179.686,76.054,179.774,75.79,179.774C75.592,179.774,75.108,179.774,74.734,179.73C75.02,180.28,75.218,181.292,75.284,181.952C76.01,181.952,76.934,181.93,77.594,181.644C78.276,181.358,78.65,180.808,78.716,179.796C78.826,178.894,78.87,176.254,78.87,172.0517L78.958,171.6106L77.132,170.9493L76.648,171.2579L76.23,171.5666L74.448,172.338L74.448,167.29037L71.984,167.29037L71.984,173.394L70.158,174.164L70.158,169.42849999999999L67.65,169.42849999999999ZM58.85,182.216L59.906,184.856C61.93,183.932,64.46,182.744,66.814,181.578L66.22,179.246L64.174,180.10399999999998L64.174,174.912L66.418,174.912L66.418,172.404L64.174,172.404L64.174,167.59906L61.71,167.59906L61.71,172.404L59.136,172.404L59.136,174.912L61.71,174.912L61.71,181.11599999999999C60.632,181.556,59.642,181.93,58.85,182.216ZM96.756,172.184L96.756,184.636L94.424,184.636L94.424,187.166L108.966,187.166L108.966,184.636L104.28,184.636L104.28,177.178L108.526,177.178L108.526,174.648L104.28,174.648L104.28,167.44438L101.618,167.44438L101.618,184.636L99.33,184.636L99.33,172.184L96.756,172.184ZM88.11,181.84199999999998L89.078,184.46C91.146,183.624,93.786,182.524,96.206,181.468L95.722,179.18L93.5,179.994L93.5,174.912L96.03,174.912L96.03,172.404L93.5,172.404L93.5,167.62106L91.058,167.62106L91.058,172.404L88.352,172.404L88.352,174.912L91.058,174.912L91.058,180.852C89.936,181.248,88.924,181.6,88.11,181.84199999999998Z" fill="#215FFF" fill-opacity="1"/><path d="M5.94,173.086L16.368,173.086L16.368,176.54L5.94,176.54L5.94,175.61599999999999L5.94,173.086ZM9.218,167.84244C9.592,168.68084,10.032,169.80594,10.296,170.622L3.168,170.622L3.168,175.61599999999999C3.168,178.828,2.948,183.4092,0.572,186.5366C1.21,186.8229,2.398,187.66,2.904,188.1447C4.774,185.6999,5.522,182.1538,5.808,179.004L16.368,179.004L16.368,180.1494L19.074,180.1494L19.074,170.622L11.792,170.622L13.112,170.247C12.848,169.38691,12.342,168.12947,11.858,167.18072L9.218,167.84244ZM31.526,169.456L31.526,187.5469L34.276,187.5469L34.276,185.736L46.024,185.736L46.024,187.5029L48.906,187.5029L48.906,169.456L31.526,169.456ZM34.276,183.03L34.276,172.14L46.024,172.14L46.024,183.03L34.276,183.03ZM67.65,169.42849999999999L67.65,175.242L65.472,176.166L66.44,178.498L67.65,177.97L67.65,183.69C67.65,186.726,68.486,187.54,71.5,187.54C72.182,187.54,75.482,187.54,76.208,187.54C78.782,187.54,79.552,186.506,79.904,183.382C79.178,183.228,78.166,182.81,77.594,182.436C77.396,184.68,77.176,185.186,75.988,185.186C75.284,185.186,72.358,185.186,71.698,185.186C70.356,185.186,70.158,184.988,70.158,183.69L70.158,176.892L71.984,176.1L71.984,182.832L74.448,182.832L74.448,175.022L76.362,174.208C76.362,177.332,76.318,178.96,76.274,179.29C76.208,179.686,76.054,179.774,75.79,179.774C75.592,179.774,75.108,179.774,74.734,179.73C75.02,180.28,75.218,181.292,75.284,181.952C76.01,181.952,76.934,181.93,77.594,181.644C78.276,181.358,78.65,180.808,78.716,179.796C78.826,178.894,78.87,176.254,78.87,172.0517L78.958,171.6106L77.132,170.9493L76.648,171.2579L76.23,171.5666L74.448,172.338L74.448,167.29037L71.984,167.29037L71.984,173.394L70.158,174.164L70.158,169.42849999999999L67.65,169.42849999999999ZM58.85,182.216L59.906,184.856C61.93,183.932,64.46,182.744,66.814,181.578L66.22,179.246L64.174,180.10399999999998L64.174,174.912L66.418,174.912L66.418,172.404L64.174,172.404L64.174,167.59906L61.71,167.59906L61.71,172.404L59.136,172.404L59.136,174.912L61.71,174.912L61.71,181.11599999999999C60.632,181.556,59.642,181.93,58.85,182.216ZM96.756,172.184L96.756,184.636L94.424,184.636L94.424,187.166L108.966,187.166L108.966,184.636L104.28,184.636L104.28,177.178L108.526,177.178L108.526,174.648L104.28,174.648L104.28,167.44438L101.618,167.44438L101.618,184.636L99.33,184.636L99.33,172.184L96.756,172.184ZM88.11,181.84199999999998L89.078,184.46C91.146,183.624,93.786,182.524,96.206,181.468L95.722,179.18L93.5,179.994L93.5,174.912L96.03,174.912L96.03,172.404L93.5,172.404L93.5,167.62106L91.058,167.62106L91.058,172.404L88.352,172.404L88.352,174.912L91.058,174.912L91.058,180.852C89.936,181.248,88.924,181.6,88.11,181.84199999999998Z" fill="#000000" fill-opacity="0.05999999865889549"/></g></g></svg>